# xmcd
#
# Track frame offsets: 
#        150
#        11591
#        24015
#        35265
#        49944
#        61836
#        72374
#        84035
#        96994
#        108081
#        120551
#        132683
#        143482
#        154370
#        166305
#        175924
#        186617
#        197923
#        209449
#        220586
#        233076
#        245797
#        259373
#        273803
#        287970
#        301712
#        314260
#        326829
#
# Disc length: 4532 seconds
#
# Revision: 0
# Processed by: cddbd v1.5.2PL0 Copyright (c) Steve Scherf et al.
# Submitted via: ExactAudioCopyFreeDBPlugin 1.0
#
DISCID=9511b21c
DTITLE=Various Artist - Jimmy Nolen: Strollin' With Nolen
DYEAR=2019
DGENRE=R&B
TTITLE0=Monte Easter And His Band - New Orleans
TTITLE1=Monte Easter And His Band - After Dark
TTITLE2=Monte Easter And His Band - Just A Rockin'
TTITLE3=Monte Easter And His Band - Blues In The Evening 
TTITLE4=Monte Easter And His Band - Midnight Rider
TTITLE5=Monte Easter And His Band - Going Back To Kansas City
TTITLE6=Chuck Higgins and His Joy Boys - I'll Be There
TTITLE7=Jimmy Nolen - Slow Freight Back Home
TTITLE8=Jimmy Nolen - Let's Try Again
TTITLE9=Jimmy Nolen - I Can't Stand You No More
TTITLE10=Jimmy Nolen - You've Been Goofing
TTITLE11=Jimmy Nolen - Strollin' With Nolen
TTITLE12=Jimmy Nolen - Strollin' With Nolen (Alt.Take)
TTITLE13=Jimmy Nolen - After Hours
TTITLE14=Chuck Higgins And His Band - Here I'm Is
TTITLE15=Chuck Higgins And His Band - Wetback Hop
TTITLE16=Moose John - Wrong Doin' Woman
TTITLE17=Moose John - Talkin' Bout Me
TTITLE18=Rudy Ray Moore - The Buggy Ride
TTITLE19=Rudy Ray Moore - I'm Mad With You
TTITLE20=Rudy Ray Moore - My Little Angel
TTITLE21=Jimmy Nolen - Strawberry Jam
TTITLE22=Jimmy Nolen - Strawberry Jam (Alt.Take 1)
TTITLE23=Jimmy Nolen - Strawberry Jam (Alt.Take 2)
TTITLE24=Jimmy Nolen - Strawberry Jam (Alt.Take 3)
TTITLE25=Jimmy Nolen - The Lost Train
TTITLE26=Jimmy Nolen - Don't Leave Me No More
TTITLE27=Jimmy Nolen - Wipe Your Tears
EXTD=
EXTT0=
EXTT1=
EXTT2=
EXTT3=
EXTT4=
EXTT5=
EXTT6=
EXTT7=
EXTT8=
EXTT9=
EXTT10=
EXTT11=
EXTT12=
EXTT13=
EXTT14=
EXTT15=
EXTT16=
EXTT17=
EXTT18=
EXTT19=
EXTT20=
EXTT21=
EXTT22=
EXTT23=
EXTT24=
EXTT25=
EXTT26=
EXTT27=
PLAYORDER=
